<?xml version="1.0" standalone="no"?>
<!DOCTYPE svg PUBLIC "-//W3C//DTD SVG 20010904//EN"
 "http://www.w3.org/TR/2001/REC-SVG-20010904/DTD/svg10.dtd">
<svg version="1.0" xmlns="http://www.w3.org/2000/svg"
 width="2219.000000pt" height="1921.000000pt" viewBox="0 0 2219.000000 1921.000000"
 preserveAspectRatio="xMidYMid meet">

<g transform="translate(0.000000,1921.000000) scale(0.100000,-0.100000)"
fill="#000000" stroke="none">
<path d="M3220 18773 c-47 -48 -74 -121 -94 -256 -9 -59 -23 -123 -30 -142
-15 -35 -16 -35 -78 -35 -34 0 -111 5 -170 12 -189 21 -258 4 -658 -162 -303
-125 -334 -135 -358 -118 -30 20 -62 63 -157 203 -138 205 -292 391 -388 467
-39 30 -57 38 -91 38 -23 0 -52 -7 -65 -16 -22 -16 -23 -21 -18 -93 3 -49 27
-152 67 -291 34 -118 75 -269 91 -335 22 -87 49 -159 99 -262 l68 -142 -145
-213 c-165 -242 -242 -348 -252 -348 -41 0 -65 83 -49 170 17 96 80 280 148
435 28 65 31 77 19 73 -35 -12 -169 -315 -195 -442 -21 -99 -34 -116 -89 -116
-27 0 -57 8 -77 20 -42 25 -74 25 -115 0 -46 -28 -43 -54 23 -178 31 -57 59
-116 63 -130 4 -15 27 -40 52 -57 61 -43 69 -71 40 -138 -57 -128 -91 -349
-91 -585 0 -73 -5 -132 -12 -147 -17 -39 -74 -63 -363 -160 -349 -116 -409
-150 -391 -219 9 -35 54 -46 350 -91 131 -20 263 -45 292 -56 75 -28 124 -88
218 -265 123 -232 196 -351 258 -422 32 -36 58 -70 58 -77 0 -6 -12 -22 -26
-36 -48 -45 -65 -113 -42 -164 24 -53 76 -68 259 -74 l165 -6 75 -56 c41 -31
99 -68 129 -83 30 -14 82 -46 115 -70 33 -25 148 -91 256 -146 227 -116 239
-124 222 -141 -18 -18 -93 4 -219 65 -99 48 -167 88 -496 289 -60 36 -121 68
-138 72 -31 7 -100 -10 -100 -25 0 -47 480 -331 604 -358 72 -15 236 -123 236
-156 0 -33 -152 -145 -233 -172 -48 -16 -77 -50 -77 -92 0 -56 64 -55 316 7
109 27 218 52 241 56 65 10 106 -8 147 -65 20 -28 55 -64 78 -81 116 -83 392
-214 813 -383 l300 -121 -3 -45 c-2 -25 -18 -97 -37 -160 -167 -568 -245
-1263 -217 -1919 43 -967 212 -1630 612 -2396 313 -601 704 -1149 1235 -1730
l101 -110 18 -192 c37 -413 98 -698 192 -901 19 -41 33 -78 32 -82 -2 -4 -149
-155 -327 -336 -628 -638 -864 -918 -1009 -1201 -79 -155 -105 -248 -106 -373
-1 -95 2 -110 27 -162 71 -145 255 -217 522 -205 341 16 731 143 1483 483 151
68 277 124 280 124 4 0 42 -46 84 -103 42 -56 123 -165 181 -242 149 -199 330
-399 648 -715 l277 -275 6 -135 c19 -382 71 -591 236 -937 162 -339 400 -617
663 -775 223 -134 423 -113 596 63 69 70 143 183 182 278 55 135 88 201 103
207 8 3 61 -10 118 -30 153 -51 207 -60 368 -60 354 2 746 126 1135 361 249
149 444 308 809 658 254 243 317 300 356 320 16 8 73 20 127 25 98 11 333 60
601 126 248 61 437 135 657 259 84 47 218 94 345 120 41 9 111 27 154 41 44
14 90 23 102 20 13 -4 76 -56 141 -117 254 -240 475 -401 1373 -1003 239 -160
480 -320 535 -356 55 -35 170 -110 255 -166 328 -215 777 -454 985 -522 213
-71 306 -87 505 -87 153 0 185 3 255 23 217 63 340 189 390 399 16 67 16 79 2
166 -53 312 -215 616 -619 1158 -212 286 -313 436 -363 542 -48 100 -68 187
-45 187 8 0 77 -18 156 -40 178 -50 237 -64 625 -145 388 -82 484 -106 577
-144 92 -38 182 -55 249 -46 117 14 276 125 326 227 110 224 130 278 139 377
12 143 37 255 178 831 71 289 171 692 221 895 363 1476 504 2103 603 2685 19
113 47 246 62 295 15 50 33 113 41 140 20 70 28 303 14 393 -19 122 -97 248
-194 312 -139 92 -485 407 -1032 940 -99 97 -272 265 -384 374 l-205 198 -81
182 c-45 99 -94 213 -110 253 l-28 72 29 48 c15 26 44 70 63 97 73 101 432
634 492 731 34 55 97 154 139 220 124 191 182 294 314 555 188 372 259 545
345 845 56 196 137 550 176 780 24 137 42 170 109 199 49 22 57 30 84 88 17
34 42 99 57 143 51 150 143 390 273 715 228 571 252 650 252 832 -1 150 -33
207 -143 253 -67 28 -1085 48 -1223 24 -77 -13 -104 -36 -104 -87 0 -57 106
-364 305 -882 255 -664 261 -686 252 -889 -4 -78 -15 -174 -27 -226 -24 -108
-289 -902 -367 -1100 -120 -306 -206 -451 -677 -1150 -284 -421 -451 -631
-545 -684 l-42 -23 -44 46 c-24 25 -72 87 -106 138 -422 629 -880 1096 -1514
1543 -77 54 -183 134 -235 176 -56 45 -126 91 -170 111 -42 19 -139 71 -215
115 -330 190 -694 382 -795 419 -25 9 -81 20 -125 24 -91 9 -207 45 -310 97
-91 45 -95 49 -95 88 0 34 16 67 288 595 66 129 170 350 230 490 60 141 146
332 189 425 44 94 139 305 211 470 71 165 158 359 192 430 90 188 92 194 97
341 9 217 -7 285 -174 737 -48 129 -155 239 -346 353 -118 70 -220 108 -402
148 -344 76 -604 71 -1009 -20 -465 -104 -982 -261 -1946 -589 -250 -86 -884
-312 -1100 -393 -140 -53 -494 -197 -710 -289 -96 -41 -204 -82 -240 -90 -157
-36 -187 -46 -308 -99 -147 -64 -477 -196 -607 -244 -98 -35 -200 -83 -226
-106 -24 -22 -111 -32 -334 -39 -248 -8 -329 -19 -375 -48 -65 -43 -121 -57
-298 -78 -198 -22 -328 -43 -577 -92 -121 -24 -179 -32 -204 -26 -46 10 -90
56 -97 101 -6 34 -2 41 58 105 194 207 378 551 378 707 0 53 -2 58 -32 76 -42
26 -64 25 -146 -4 -129 -46 -691 -312 -920 -435 -62 -34 -125 -61 -140 -61
-30 0 -110 39 -291 142 -142 81 -191 120 -191 152 0 13 13 69 29 127 41 146
51 201 51 270 0 54 -3 64 -30 91 -28 28 -35 30 -84 26 -31 -3 -76 -16 -107
-32 -74 -37 -174 -118 -209 -169 -54 -78 -71 -97 -91 -97 -20 0 -538 260 -714
359 -60 34 -116 69 -122 78 -21 27 17 78 210 279 329 345 397 430 397 502 0
37 -18 62 -46 62 -42 0 -256 -118 -729 -400 -104 -62 -223 -129 -264 -148
l-73 -35 -52 18 c-176 62 -951 416 -985 450 -22 22 -26 34 -24 78 3 76 46 187
73 187 13 0 34 -44 71 -145 36 -99 68 -134 103 -111 50 33 20 264 -55 428 -54
116 -111 139 -179 71z m-1818 -405 c95 -115 258 -396 258 -443 0 -47 -111
-158 -140 -140 -19 12 -38 59 -83 210 -68 223 -104 415 -78 415 5 0 24 -19 43
-42z m1586 -148 c79 -10 131 -33 377 -162 77 -41 221 -116 320 -167 218 -112
315 -171 315 -190 0 -8 -18 -38 -41 -68 -49 -65 -69 -111 -69 -157 0 -65 50
-61 94 8 32 51 122 143 148 152 27 8 282 -111 558 -261 58 -31 155 -84 217
-116 61 -33 117 -66 123 -74 20 -24 15 -62 -14 -105 -43 -65 -154 -177 -183
-185 -20 -5 -73 17 -252 104 -229 111 -272 128 -290 117 -15 -10 -2 -34 22
-40 31 -8 373 -202 492 -279 55 -36 118 -70 140 -77 22 -7 126 -52 230 -100
105 -48 271 -125 370 -170 387 -175 1457 -718 1498 -759 17 -17 -15 -52 -116
-128 -202 -152 -468 -436 -702 -748 -338 -452 -777 -1207 -945 -1626 -29 -71
-60 -139 -69 -151 -17 -20 -17 -20 -53 13 -23 22 -54 38 -87 46 -55 13 -223
83 -259 109 -28 20 -28 29 3 60 41 41 71 93 104 179 17 44 38 89 46 99 20 26
56 23 145 -13 96 -38 124 -45 155 -37 37 9 33 49 -7 79 -63 47 -182 100 -788
349 -201 83 -417 172 -480 198 -145 60 -500 213 -646 278 -61 27 -122 53 -135
57 -13 4 -160 70 -327 146 -166 77 -331 150 -365 163 -34 14 -147 63 -252 110
-175 79 -235 99 -235 78 0 -14 42 -46 104 -77 65 -34 106 -75 106 -109 0 -19
-26 -36 -172 -110 -95 -47 -182 -86 -193 -86 -46 0 -249 115 -307 174 -15 15
-39 59 -53 97 -24 61 -32 72 -67 90 -47 24 -108 86 -182 184 -67 89 -106 156
-106 182 0 22 42 43 87 43 14 0 93 14 176 31 90 18 184 30 229 30 l78 1 -14
31 c-8 18 -43 93 -79 168 -36 75 -89 205 -118 290 -59 174 -61 196 -42 419 12
134 24 191 48 220 18 22 79 143 120 239 20 47 51 110 69 140 19 31 56 98 82
150 28 52 73 120 105 155 30 33 89 106 131 161 105 140 183 209 293 261 50 23
122 49 160 57 284 63 683 36 780 -52 38 -35 83 -53 105 -41 30 16 44 81 26
123 -27 66 -169 112 -436 142 -81 9 -151 22 -158 29 -7 7 -22 57 -33 111 -11
55 -24 104 -29 109 -7 7 -18 3 -33 -12 -20 -20 -22 -33 -22 -118 0 -114 -2
-117 -108 -134 -276 -47 -416 -132 -650 -397 -20 -24 -39 -43 -42 -43 -3 0
-18 26 -34 58 -37 74 -99 141 -131 145 -22 2 -25 -2 -28 -33 -2 -27 9 -54 48
-120 28 -47 53 -95 56 -106 6 -23 -31 -119 -111 -289 -26 -55 -82 -176 -125
-270 -104 -227 -191 -389 -211 -393 -9 -2 -57 25 -108 59 -103 68 -154 87
-177 68 -50 -41 29 -136 191 -227 84 -47 109 -80 125 -169 25 -133 82 -320
135 -445 54 -124 65 -171 45 -183 -6 -4 -81 -15 -168 -26 -157 -20 -189 -26
-249 -50 -26 -11 -34 -10 -49 2 -38 31 -131 265 -153 384 -11 61 -3 95 24 95
10 0 15 10 15 31 0 24 -11 42 -46 77 l-47 46 6 180 c9 252 40 395 99 458 17
18 43 53 58 78 l27 45 79 0 c121 0 132 19 59 100 -24 28 -45 57 -45 66 0 19
129 227 231 371 171 241 354 448 413 468 18 6 44 22 57 36 74 80 294 193 572
294 162 60 371 83 545 60z m1882 -267 c0 -25 -74 -115 -172 -208 -86 -82 -91
-85 -136 -85 -53 0 -132 32 -132 53 0 19 22 37 105 88 93 57 307 169 323 169
6 0 12 -7 12 -17z m1093 -750 c8 -14 -21 -133 -43 -177 -22 -46 -60 -70 -94
-60 -35 11 -105 68 -106 87 -1 53 220 190 243 150z m-563 -220 c200 -104 330
-176 388 -216 52 -35 52 -39 -11 -165 -47 -97 -87 -137 -125 -127 -47 12 -587
283 -621 312 -33 28 -34 30 -22 66 7 21 38 74 68 120 93 136 83 127 123 111
19 -8 109 -54 200 -101z m2126 -165 c-22 -108 -280 -442 -386 -500 -25 -13
-39 -14 -68 -6 -103 28 -342 164 -342 194 0 33 703 343 779 344 21 0 23 -3 17
-32z m-1356 -255 c64 -32 205 -105 313 -163 l198 -104 -6 -41 c-19 -114 -37
-174 -55 -180 -12 -4 -69 16 -152 53 -185 83 -300 130 -388 159 -96 31 -270
122 -270 140 0 23 54 94 114 152 53 49 60 53 94 47 20 -3 88 -31 152 -63z
m8048 -235 c6 -66 -105 -300 -278 -588 -48 -80 -100 -170 -115 -200 -15 -30
-67 -125 -115 -210 -48 -85 -113 -202 -145 -259 -68 -122 -138 -201 -178 -201
-15 0 -49 11 -75 24 -26 13 -78 33 -116 46 -37 12 -103 46 -145 74 -42 29
-125 86 -186 128 -156 107 -341 216 -637 375 -269 144 -353 197 -343 213 8 13
177 64 490 149 143 38 383 106 534 151 151 44 360 103 465 131 105 28 306 83
446 124 292 84 290 83 350 81 44 -1 45 -1 48 -38z m-7268 -169 c36 -17 118
-55 183 -85 65 -29 157 -77 205 -105 118 -72 131 -72 472 -15 356 59 393 63
606 76 243 14 290 18 429 43 100 18 157 21 345 21 194 -1 247 -4 385 -27 88
-14 214 -31 280 -37 110 -10 337 -44 367 -55 7 -3 90 -21 183 -40 183 -38 476
-112 565 -143 31 -11 79 -31 107 -46 29 -14 65 -26 80 -26 29 0 108 -27 233
-80 41 -17 94 -35 119 -41 25 -5 77 -25 117 -44 40 -19 129 -57 198 -85 70
-27 168 -71 217 -96 50 -25 128 -59 173 -75 44 -17 115 -47 156 -68 41 -21
127 -57 190 -80 63 -23 159 -64 213 -92 53 -27 131 -63 173 -79 122 -49 164
-74 262 -155 88 -74 122 -115 122 -149 0 -9 -16 -36 -35 -62 -21 -27 -35 -57
-35 -74 0 -15 -7 -33 -16 -41 -9 -7 -36 -53 -60 -101 -24 -49 -79 -139 -121
-201 -144 -210 -156 -231 -230 -382 -44 -92 -77 -176 -84 -211 -6 -32 -26
-105 -45 -160 -19 -58 -38 -143 -45 -199 -15 -127 -7 -315 17 -380 105 -294
436 -467 826 -434 104 9 138 16 288 59 58 16 113 30 122 30 22 0 57 -37 70
-71 12 -34 38 -41 99 -28 46 10 50 14 104 97 30 48 85 150 122 227 185 386
587 1173 609 1193 45 39 108 27 294 -60 52 -25 149 -67 215 -93 66 -27 161
-70 210 -96 50 -26 125 -61 167 -78 43 -17 130 -57 195 -89 65 -32 145 -69
178 -82 32 -13 143 -80 245 -149 102 -68 214 -141 251 -161 211 -117 717 -528
969 -786 366 -375 730 -851 730 -954 0 -13 9 -24 25 -30 13 -5 34 -28 46 -52
12 -24 45 -81 74 -128 30 -47 63 -110 74 -140 11 -31 59 -133 105 -228 124
-250 236 -506 236 -536 0 -15 11 -52 24 -84 68 -162 133 -415 180 -702 52
-320 58 -395 58 -750 0 -452 -25 -743 -88 -1035 -53 -239 -110 -460 -143 -555
-17 -47 -31 -95 -31 -108 0 -12 -16 -63 -35 -112 -19 -49 -35 -98 -35 -108 0
-11 -8 -30 -18 -43 -10 -13 -24 -48 -30 -77 -7 -29 -32 -99 -56 -155 -24 -56
-52 -129 -61 -162 -19 -67 -449 -935 -538 -1086 -92 -157 -136 -178 -246 -117
-66 36 -97 34 -142 -12 -53 -52 -29 -112 66 -170 63 -38 90 -79 67 -102 -6 -6
-41 -15 -76 -19 -79 -10 -101 -23 -125 -74 -25 -56 -29 -80 -41 -282 -16 -269
-37 -448 -80 -663 -21 -107 -44 -224 -50 -260 -6 -36 -27 -112 -47 -170 -33
-97 -35 -108 -24 -151 7 -25 16 -74 21 -109 7 -47 32 -111 106 -264 109 -227
140 -276 269 -431 227 -272 575 -798 612 -925 8 -30 26 -76 39 -102 58 -115
69 -281 24 -353 -23 -38 -87 -94 -135 -118 -113 -57 -494 -38 -671 34 -44 17
-121 46 -172 65 -52 18 -126 53 -165 77 -40 25 -153 89 -252 142 -99 54 -227
131 -285 172 -57 41 -149 99 -205 130 -55 31 -198 122 -318 202 -120 80 -250
166 -290 190 -151 93 -206 129 -347 226 -80 55 -228 152 -330 215 -201 125
-610 413 -893 629 -222 170 -362 268 -406 287 -56 24 -167 118 -321 274 -153
154 -154 155 -333 470 -36 63 -96 187 -133 275 -76 183 -80 197 -95 284 -5 35
-18 82 -28 105 -27 61 -28 64 -58 286 -26 197 -27 222 -27 635 0 251 6 492 13
578 16 190 45 372 72 445 12 31 25 95 30 142 4 47 19 123 33 169 29 94 34 182
12 200 -18 15 -58 -4 -100 -47 -69 -73 -168 -494 -233 -987 -15 -116 -18 -210
-18 -550 0 -431 3 -480 51 -709 29 -143 29 -151 4 -176 -17 -17 -33 -20 -120
-20 -123 0 -366 24 -475 47 -44 9 -93 16 -110 16 -121 -2 -558 47 -675 76 -41
11 -121 24 -178 31 -137 15 -316 46 -340 59 -10 5 -61 17 -113 26 -145 24
-277 54 -359 80 -41 12 -118 31 -170 41 -180 33 -423 111 -434 140 -9 24 9 43
155 165 75 63 250 218 390 344 509 460 885 772 975 810 17 7 41 29 53 49 16
26 33 39 63 46 55 15 130 85 126 119 -4 34 -37 41 -155 30 -54 -4 -141 -8
-194 -9 -146 0 -147 -1 -257 -108 -86 -84 -295 -266 -702 -612 -68 -57 -175
-152 -239 -210 -388 -356 -525 -468 -818 -671 -114 -78 -234 -163 -267 -189
-34 -26 -95 -66 -136 -90 -104 -61 -326 -165 -380 -180 -25 -6 -79 -33 -120
-60 -42 -27 -97 -54 -124 -60 -27 -6 -61 -19 -75 -29 -40 -28 -89 -47 -244
-91 -196 -55 -240 -53 -325 21 -70 61 -111 48 -293 -95 -58 -45 -142 -102
-185 -126 -43 -24 -141 -83 -217 -132 -77 -49 -189 -110 -252 -137 -62 -27
-137 -64 -166 -83 -30 -19 -61 -37 -69 -40 -136 -56 -332 -149 -395 -187 -44
-27 -106 -56 -138 -65 -31 -9 -101 -39 -155 -65 -142 -71 -208 -97 -329 -130
-59 -16 -157 -45 -218 -64 -197 -62 -253 -71 -440 -72 -156 0 -175 2 -233 24
-90 34 -128 72 -137 138 -10 77 9 147 79 285 130 257 190 342 464 648 190 212
675 699 792 796 47 39 109 84 138 99 33 18 60 41 69 60 22 43 528 545 593 588
30 20 80 45 110 55 87 30 129 55 225 132 132 105 301 215 435 281 64 32 122
64 128 71 6 8 15 94 22 193 22 369 69 676 119 791 12 26 21 62 21 80 0 18 20
86 44 151 24 65 62 170 85 235 24 67 66 158 100 216 33 55 74 129 92 163 46
92 127 220 213 338 42 58 97 139 122 181 96 160 368 451 559 595 128 97 160
128 152 149 -33 85 -375 -167 -670 -493 -224 -247 -312 -366 -421 -569 -35
-64 -87 -155 -115 -202 -133 -217 -287 -589 -341 -820 -12 -52 -33 -135 -47
-185 -13 -49 -29 -112 -34 -140 -6 -27 -15 -72 -20 -100 -13 -65 -26 -172 -38
-319 -12 -159 -5 -150 -218 -274 -59 -34 -178 -114 -263 -178 -277 -208 -329
-244 -354 -244 -63 0 -296 198 -662 564 -488 489 -865 928 -1028 1195 -32 52
-74 115 -95 140 -60 72 -183 261 -242 371 -30 56 -83 151 -117 213 -83 146
-127 235 -136 272 -4 17 -22 60 -41 96 -81 158 -193 485 -284 829 -56 214 -97
469 -111 690 -5 74 -14 200 -20 280 -20 261 9 1103 42 1189 13 34 22 21 74
-105 69 -166 95 -192 271 -266 138 -57 185 -67 249 -52 30 7 95 15 146 19 l93
7 -4 -371 -3 -371 68 -126 c80 -146 118 -185 239 -247 92 -46 117 -48 206 -14
173 66 346 213 418 355 12 24 38 69 58 100 62 97 113 219 198 478 46 138 92
269 103 291 24 46 75 93 102 93 41 0 176 74 278 152 138 106 388 474 556 818
97 197 136 316 136 412 -1 117 -37 178 -108 178 -44 0 -71 -38 -103 -146 -59
-197 -123 -336 -267 -577 -108 -181 -245 -358 -363 -472 -153 -146 -214 -167
-368 -125 -94 26 -142 51 -198 103 -94 87 -126 193 -127 427 l-1 164 -72 12
c-99 17 -113 26 -113 73 0 22 11 72 25 113 14 40 34 108 45 152 34 133 210
480 361 708 43 65 82 133 87 151 5 18 25 56 45 83 20 27 40 61 46 75 14 39
158 226 197 257 19 15 34 33 34 40 0 33 87 177 209 342 186 254 431 519 671
725 108 92 223 161 326 195 182 60 244 102 244 163 0 74 -38 88 -226 86 -121
-2 -146 1 -191 19 -91 37 -377 183 -400 205 -31 27 -28 54 8 102 56 74 99 82
199 34z m13786 -118 c144 -25 164 -33 164 -68 0 -57 -145 -547 -197 -665 -52
-117 -71 -83 -179 317 -99 363 -104 405 -57 435 22 13 119 6 269 -19z m-19907
-280 c25 -59 28 -119 5 -128 -17 -6 -218 23 -264 38 -39 14 -38 34 1 54 48 25
202 84 220 85 10 0 25 -19 38 -49z m171 -393 c41 -58 108 -153 147 -210 40
-57 92 -127 116 -155 52 -60 72 -104 63 -137 -21 -84 -130 -70 -194 24 -18 27
-23 44 -19 73 8 59 -7 95 -83 197 -131 177 -190 331 -120 318 8 -2 49 -51 90
-110z m1505 -693 c129 -56 427 -203 485 -240 53 -33 52 -52 -11 -156 -28 -46
-62 -105 -75 -131 -39 -77 -78 -85 -132 -27 -17 18 -57 40 -107 58 -157 56
-591 278 -602 308 -7 18 10 36 87 98 36 29 87 74 113 100 45 45 50 47 90 43
23 -3 92 -26 152 -53z m-1026 21 c18 -14 46 -40 63 -58 l29 -33 -35 -3 c-44
-4 -144 14 -162 29 -22 18 -16 46 12 68 34 27 53 26 93 -3z m366 -222 c55 -22
419 -219 557 -301 65 -39 120 -96 112 -118 -15 -37 -66 -29 -169 26 -38 21
-115 56 -169 79 -216 90 -476 262 -476 315 0 41 40 41 145 -1z m1378 -148 c40
-14 223 -91 407 -171 184 -81 371 -162 415 -180 526 -215 766 -318 808 -347
17 -12 27 -28 27 -44 0 -39 -54 -136 -109 -196 -42 -46 -51 -62 -51 -92 0 -48
-16 -47 -132 7 -51 24 -140 62 -198 85 -58 22 -157 62 -220 87 -63 26 -144 53
-179 61 -72 17 -108 33 -135 63 -24 27 -17 54 43 161 57 102 63 117 50 126
-21 13 -60 -8 -128 -70 -83 -77 -122 -91 -231 -83 -71 4 -87 11 -290 110 -118
58 -237 121 -265 139 -47 32 -50 36 -48 73 2 42 96 275 116 287 20 13 45 9
120 -16z m-511 -322 c34 -19 71 -43 81 -53 18 -18 17 -19 -25 -43 -58 -34
-164 -75 -213 -82 -91 -14 -85 36 17 141 39 40 72 73 74 73 1 0 31 -16 66 -36z
m503 -258 c189 -94 251 -138 240 -168 -19 -49 -156 -34 -315 32 -41 17 -107
41 -147 52 -39 11 -81 29 -92 39 -19 18 -20 22 -7 48 21 39 82 91 109 91 12 0
107 -42 212 -94z m-320 -123 c109 -46 351 -172 380 -199 25 -23 26 -27 12 -41
-14 -15 -22 -15 -79 -1 -61 15 -274 103 -424 174 -80 38 -121 78 -103 100 24
29 91 18 214 -33z m786 -109 c17 -21 -13 -51 -86 -85 -74 -36 -85 -36 -85 -2
0 17 13 38 40 64 51 48 102 57 131 23z m215 -160 c74 -30 318 -155 361 -185
23 -17 43 -34 43 -39 0 -15 -76 -12 -138 6 -32 9 -108 36 -170 60 -111 43
-156 53 -166 35 -10 -15 26 -37 184 -116 175 -87 204 -108 189 -136 -5 -11
-18 -19 -28 -19 -46 0 -344 145 -479 234 -77 50 -77 74 0 90 15 4 48 24 73 46
51 44 73 48 131 24z m665 -299 c37 -14 75 -35 85 -46 17 -19 17 -20 -2 -46
-28 -37 -131 -92 -187 -99 -63 -9 -107 9 -107 45 0 56 87 171 129 171 8 0 46
-11 82 -25z m606 -150 c31 -35 39 -86 19 -126 -22 -44 -21 -54 17 -107 29 -43
32 -54 32 -122 0 -95 -19 -136 -169 -360 -147 -221 -277 -353 -414 -422 -58
-30 -118 -52 -158 -59 -72 -13 -219 -7 -275 10 -54 17 -119 78 -146 138 -43
98 -77 405 -54 490 14 53 71 105 192 175 136 80 537 275 586 286 23 6 57 22
74 36 104 88 246 117 296 61z m-1128 3 c101 -54 88 -160 -16 -133 -35 8 -113
87 -113 113 0 45 64 54 129 20z m1432 -1100 c23 -18 51 -45 63 -61 18 -25 19
-32 8 -75 -18 -69 -124 -277 -142 -277 -13 0 -15 26 -13 180 2 208 8 265 28
265 7 0 33 -15 56 -32z m13629 -258 c-12 -24 -56 -97 -97 -164 -42 -66 -84
-140 -94 -163 -10 -23 -28 -47 -40 -54 -21 -11 -26 -8 -51 22 -67 80 -59 136
28 193 30 20 89 67 132 104 96 84 134 113 139 108 3 -2 -5 -23 -17 -46z
m-13278 -5297 c413 -352 413 -352 404 -381 -9 -27 -184 -195 -242 -232 -66
-41 -90 -40 -110 8 -68 157 -164 529 -164 634 l0 49 28 -15 c15 -8 52 -36 84
-63z m12872 -540 c-23 -167 -115 -563 -139 -600 -19 -28 -65 -37 -168 -31 -82
5 -137 22 -137 42 1 6 27 48 58 93 31 46 113 165 181 265 133 196 187 268 201
268 5 0 6 -17 4 -37z m-9047 -720 c-41 -82 -46 -124 -77 -743 -6 -113 -17
-275 -25 -360 -8 -85 -20 -203 -25 -261 -6 -59 -22 -169 -36 -245 -58 -316
-84 -475 -95 -582 l-11 -112 30 -98 c80 -251 88 -510 27 -867 -78 -453 -163
-712 -285 -863 -57 -70 -105 -95 -192 -100 -109 -7 -154 20 -323 191 -192 194
-307 351 -340 459 -8 27 -25 63 -38 80 -39 52 -62 105 -96 217 -43 144 -78
332 -91 486 -15 189 -28 273 -47 313 -20 42 -188 213 -258 262 -84 59 -579
555 -688 690 -56 69 -127 156 -159 194 -61 72 -98 138 -98 174 0 17 12 25 59
43 33 12 131 64 218 115 204 122 373 205 428 212 26 2 62 -2 91 -12 62 -21
220 -21 322 0 42 9 136 35 207 60 72 24 155 49 185 55 30 6 107 36 170 66 63
30 148 68 188 84 99 40 160 71 272 139 52 31 142 83 199 115 120 66 201 121
309 207 42 33 91 67 107 74 17 7 44 24 60 38 17 13 31 23 33 21 2 -2 -8 -25
-21 -52z m449 -57 c28 -7 80 -25 115 -39 35 -14 158 -49 274 -77 225 -55 287
-77 304 -108 24 -45 20 -861 -5 -1151 l-7 -73 -76 -61 c-115 -92 -288 -271
-363 -377 -86 -121 -221 -349 -333 -560 -194 -366 -209 -390 -225 -374 -6 6
-21 73 -35 150 -13 76 -36 195 -50 263 -38 187 -35 283 19 604 79 461 95 610
116 1032 11 222 24 345 39 374 6 9 15 58 21 107 6 49 15 126 21 172 15 127 18
132 81 132 29 0 76 -6 104 -14z m1306 -320 c201 -34 592 -89 718 -100 219 -20
497 -49 635 -66 285 -36 304 -49 385 -260 47 -122 119 -249 263 -465 159 -238
351 -424 552 -534 62 -34 115 -78 115 -94 0 -21 -97 0 -134 28 -32 24 -42 27
-82 21 -63 -8 -127 -38 -161 -75 -34 -36 -307 -176 -418 -213 -211 -72 -443
-132 -551 -143 -38 -4 -81 -14 -97 -22 -36 -18 -105 -30 -257 -43 -201 -18
-244 -37 -257 -113 -3 -22 -22 -60 -41 -86 -139 -183 -651 -660 -810 -754 -29
-18 -121 -76 -204 -129 -83 -54 -172 -105 -197 -114 -25 -10 -77 -32 -116 -50
-87 -40 -295 -107 -399 -129 -117 -23 -308 -36 -408 -25 -91 9 -160 36 -178
69 -36 67 43 336 147 503 22 35 48 86 58 113 10 28 45 100 78 160 33 61 107
202 165 315 125 246 197 363 317 518 88 115 275 311 387 408 l58 49 12 446 13
445 53 105 c58 115 66 163 32 194 -11 10 -20 31 -20 47 l0 28 70 0 c38 0 161
-15 272 -34z"/>
<path d="M10235 14413 c-88 -11 -246 -48 -314 -74 -90 -34 -315 -155 -439
-236 -122 -80 -305 -272 -359 -376 -9 -18 -39 -58 -68 -89 -91 -98 -225 -393
-225 -495 0 -21 -8 -54 -19 -73 -17 -33 -18 -41 -5 -105 7 -39 20 -113 28
-166 20 -123 69 -273 141 -430 32 -68 72 -158 91 -199 95 -213 625 -720 753
-720 14 0 40 -7 56 -16 94 -50 175 -74 286 -84 170 -15 378 -13 464 5 223 46
460 197 575 365 126 186 279 520 362 790 65 213 81 311 81 490 -1 170 -18 309
-49 392 -9 24 -30 91 -48 149 -55 179 -142 314 -320 498 -106 108 -210 195
-336 278 -93 62 -136 79 -234 92 -72 10 -352 13 -421 4z m366 -127 c97 -21
211 -71 308 -137 138 -92 205 -171 134 -155 -255 55 -357 65 -512 47 -282 -33
-533 -163 -701 -363 -116 -138 -195 -317 -207 -469 -12 -164 37 -402 118 -568
45 -92 63 -117 143 -196 77 -78 106 -99 186 -138 190 -93 384 -128 591 -108
227 23 323 61 444 178 33 32 84 90 113 128 69 93 174 308 201 415 29 114 77
218 94 201 17 -17 13 -165 -7 -279 -41 -225 -122 -454 -271 -757 -99 -204
-178 -321 -268 -400 -67 -59 -192 -130 -284 -161 -325 -109 -839 7 -1126 255
-235 203 -497 614 -582 913 -55 190 -55 174 10 359 132 374 229 556 402 755
188 216 548 419 849 478 91 19 282 19 365 2z"/>
<path d="M717 16748 c-20 -40 -43 -100 -51 -133 -35 -136 -66 -498 -48 -545
l10 -25 10 25 c5 14 15 66 21 115 7 50 33 211 58 358 24 148 43 271 40 273 -2
3 -20 -28 -40 -68z"/>
<path d="M691 15259 c5 -28 16 -74 25 -103 22 -68 104 -242 148 -314 32 -54
78 -93 92 -80 9 10 -31 80 -91 159 -30 41 -55 82 -55 91 0 26 -113 298 -124
298 -1 0 1 -23 5 -51z"/>
</g>
</svg>
